<svg xmlns="http://www.w3.org/2000/svg" width="1736" height="594"><defs><clipPath id="a"><rect class="a" width="1736" height="594" rx="24" transform="translate(92 3398)"/></clipPath><clipPath id="b"><path class="b" d="M0 0h956v718H0z"/></clipPath><style>.a{fill:#2e36ff}.b,.f{fill:none}.f{stroke:#fff;stroke-width:2px}.g{stroke:none}</style></defs><path class="a" d="M0 0h1736v594H0z"/><g transform="translate(-92 -3398)" opacity=".499" clip-path="url(#a)"><g transform="translate(47 3336)" opacity=".257" stroke="#fff" stroke-width="2" fill="none"><circle class="g" cx="359" cy="359" r="359"/><circle class="b" cx="359" cy="359" r="358"/></g><g transform="translate(872 3336)" clip-path="url(#b)" opacity=".257"><g class="f"><circle class="g" cx="359" cy="359" r="359"/><circle class="b" cx="359" cy="359" r="358"/></g><g class="f" transform="translate(58)"><circle class="g" cx="359" cy="359" r="359"/><circle class="b" cx="359" cy="359" r="358"/></g><g class="f" transform="translate(116)"><circle class="g" cx="359" cy="359" r="359"/><circle class="b" cx="359" cy="359" r="358"/></g><g class="f" transform="translate(174)"><circle class="g" cx="359" cy="359" r="359"/><circle class="b" cx="359" cy="359" r="358"/></g><g class="f" transform="translate(232)"><circle class="g" cx="359" cy="359" r="359"/><circle class="b" cx="359" cy="359" r="358"/></g><g class="f" transform="translate(290)"><circle class="g" cx="359" cy="359" r="359"/><circle class="b" cx="359" cy="359" r="358"/></g><g class="f" transform="translate(348)"><circle class="g" cx="359" cy="359" r="359"/><circle class="b" cx="359" cy="359" r="358"/></g><g class="f" transform="translate(406)"><circle class="g" cx="359" cy="359" r="359"/><circle class="b" cx="359" cy="359" r="358"/></g><g class="f" transform="translate(464)"><circle class="g" cx="359" cy="359" r="359"/><circle class="b" cx="359" cy="359" r="358"/></g><g class="f" transform="translate(522)"><circle class="g" cx="359" cy="359" r="359"/><circle class="b" cx="359" cy="359" r="358"/></g><g class="f" transform="translate(580)"><circle class="g" cx="359" cy="359" r="359"/><circle class="b" cx="359" cy="359" r="358"/></g><g class="f" transform="translate(638)"><circle class="g" cx="359" cy="359" r="359"/><circle class="b" cx="359" cy="359" r="358"/></g><g class="f" transform="translate(696)"><circle class="g" cx="359" cy="359" r="359"/><circle class="b" cx="359" cy="359" r="358"/></g><g class="f" transform="translate(754)"><circle class="g" cx="359" cy="359" r="359"/><circle class="b" cx="359" cy="359" r="358"/></g><g class="f" transform="translate(812)"><circle class="g" cx="359" cy="359" r="359"/><circle class="b" cx="359" cy="359" r="358"/></g><g class="f" transform="translate(870)"><circle class="g" cx="359" cy="359" r="359"/><circle class="b" cx="359" cy="359" r="358"/></g><g class="f" transform="translate(928)"><circle class="g" cx="359" cy="359" r="359"/><circle class="b" cx="359" cy="359" r="358"/></g></g></g></svg>